<?xml version="1.0" standalone="no"?>
<!DOCTYPE svg PUBLIC "-//W3C//DTD SVG 20010904//EN"
 "http://www.w3.org/TR/2001/REC-SVG-20010904/DTD/svg10.dtd">
<svg version="1.0" xmlns="http://www.w3.org/2000/svg"
 width="261.000000pt" height="261.000000pt" viewBox="0 0 261.000000 261.000000"
 preserveAspectRatio="xMidYMid meet">
<metadata>
Created by potrace 1.11, written by Peter Selinger 2001-2013
</metadata>
<g transform="translate(0.000000,261.000000) scale(0.100000,-0.100000)"
fill="#000000" stroke="none">
<path d="M1664 2599 c-82 -10 -123 -40 -145 -106 -11 -35 -8 -214 6 -278 91
-432 328 -863 523 -953 93 -42 149 -18 239 105 110 148 228 430 269 637 20
102 26 153 29 236 5 143 -25 194 -150 256 -114 56 -249 85 -465 100 -129 9
-245 10 -306 3z"/>
<path d="M1035 2553 c-16 -2 -75 -13 -130 -24 -55 -11 -111 -23 -125 -25 -121
-24 -327 -93 -447 -149 -162 -76 -250 -145 -286 -225 -26 -58 -32 -237 -11
-360 87 -527 431 -1257 744 -1577 224 -230 368 -246 605 -67 72 54 226 205
290 284 20 25 44 54 53 65 70 83 236 324 229 331 -2 2 -25 0 -51 -5 -115 -21
-210 40 -351 225 -181 238 -389 702 -482 1074 -21 84 -27 130 -27 230 -1 111
2 130 21 167 13 23 31 47 40 52 15 9 13 10 -12 9 -16 0 -43 -3 -60 -5z"/>
</g>
</svg>
