<?xml version="1.0" standalone="no"?>
<!DOCTYPE svg PUBLIC "-//W3C//DTD SVG 20010904//EN"
 "http://www.w3.org/TR/2001/REC-SVG-20010904/DTD/svg10.dtd">
<svg version="1.0" xmlns="http://www.w3.org/2000/svg"
 width="256.000000pt" height="256.000000pt" viewBox="0 0 256.000000 256.000000"
 preserveAspectRatio="xMidYMid meet">
<metadata>
Created by potrace 1.11, written by Peter Selinger 2001-2013
</metadata>
<g transform="translate(0.000000,256.000000) scale(0.100000,-0.100000)"
fill="#000000" stroke="none">
<path d="M1632 2548 c-131 -19 -167 -87 -149 -283 8 -84 62 -312 78 -329 5 -6
9 -16 9 -24 0 -40 137 -337 191 -414 11 -14 19 -29 19 -32 0 -4 11 -19 25 -34
14 -15 25 -30 25 -34 0 -4 26 -34 58 -67 61 -62 116 -101 145 -101 9 0 17 -4
17 -8 0 -5 10 -8 23 -6 12 1 30 3 39 3 23 1 172 151 151 151 -4 0 -3 4 3 8 24
17 114 188 145 277 8 22 18 43 22 46 5 3 8 9 7 13 0 3 7 30 15 59 55 177 84
343 81 467 -1 61 -6 82 -26 112 -33 48 -114 101 -198 128 -37 12 -74 24 -82
27 -8 4 -18 5 -22 5 -4 -1 -29 3 -55 8 -126 27 -420 42 -521 28z"/>
<path d="M1029 2506 c-2 -2 -26 -7 -54 -10 -79 -11 -120 -18 -126 -22 -3 -2
-21 -6 -40 -9 -41 -7 -84 -18 -164 -41 -33 -9 -67 -18 -75 -19 -8 -1 -32 -9
-53 -18 -22 -9 -58 -22 -80 -29 -23 -6 -49 -17 -57 -24 -8 -7 -24 -14 -35 -16
-21 -3 -174 -89 -207 -117 -108 -87 -135 -193 -108 -416 11 -97 65 -332 93
-405 3 -8 17 -49 30 -90 23 -68 49 -140 72 -195 5 -11 9 -22 10 -25 1 -3 7
-18 15 -35 7 -16 19 -46 28 -65 34 -83 164 -333 212 -411 94 -150 114 -179
170 -246 5 -7 10 -14 10 -17 0 -20 160 -177 226 -222 123 -84 214 -92 338 -30
43 21 83 44 89 50 7 6 35 29 62 50 99 78 233 222 343 366 40 52 77 100 82 107
6 7 10 16 10 22 0 5 4 11 8 13 8 3 63 82 82 118 10 20 9 20 -47 15 -31 -2 -74
0 -94 5 -56 15 -153 96 -219 182 -8 11 -25 32 -37 48 -13 15 -23 32 -23 38 0
6 -4 12 -8 14 -11 4 -102 154 -102 168 0 5 -5 10 -12 10 -6 0 -8 3 -5 6 4 4
-2 19 -13 34 -11 16 -20 33 -20 40 0 6 -7 18 -15 27 -8 8 -13 19 -10 24 4 5 2
9 -3 9 -5 0 -15 18 -22 40 -7 22 -17 40 -22 40 -4 0 -8 7 -8 15 0 8 -4 23 -9
33 -62 117 -185 492 -209 635 -8 54 -9 224 0 257 4 14 7 28 7 32 1 4 12 18 26
32 14 14 25 28 25 31 0 6 -54 7 -61 1z"/>
</g>
</svg>
